<?xml version="1.0" encoding="utf-8"?>
<svg xmlns="http://www.w3.org/2000/svg" xmlns:xlink="http://www.w3.org/1999/xlink" version= "1.1" width="720px" height="1424px" viewBox="0 0 720 1424">
<g id="layer1">
<g style="fill:rgb(0,0,0); fill-opacity:1.0; stroke-linejoin: miter">
<path d="M175.34698,569.22925L175.34698,569.22925L249.61578,569.22943C251.13498,569.22943,252.36655,570.46106,252.36655,571.9801L252.36655,571.9801L252.36646,680.4383C252.36646,681.95734,251.13492,683.18896,249.61572,683.18896L249.61572,683.18896L175.34702,683.18896C173.82785,683.18896,172.59631,681.95734,172.59631,680.4383L172.59631,680.4383L172.59634,571.9799C172.59634,570.4609,173.82785,569.22925,175.34698,569.22925L175.34698,569.22925 M175.34702,574.7307L178.09772,571.9799L178.09769,680.4383L175.34702,677.6876L249.61572,677.6876L246.86508,680.4383L246.86511,571.9801L249.61578,574.7309L175.34702,574.7307 Z M175.34698,569.22925L175.34698,569.22925L249.61578,569.22943C251.13498,569.22943,252.36655,570.46106,252.36655,571.9801L252.36655,571.9801L252.36646,680.4383C252.36646,681.95734,251.13492,683.18896,249.61572,683.18896L249.61572,683.18896L175.34702,683.18896C173.82785,683.18896,172.59631,681.95734,172.59631,680.4383L172.59631,680.4383L172.59634,571.9799C172.59634,570.4609,173.82785,569.22925,175.34698,569.22925L175.34698,569.22925 M175.34702,574.7307L178.09772,571.9799L178.09769,680.4383L175.34702,677.6876L249.61572,677.6876L246.86508,680.4383L246.86511,571.9801L249.61578,574.7309L175.34702,574.7307 Z M175.34698,569.22925L175.34698,569.22925L249.61578,569.22943C251.13498,569.22943,252.36655,570.46106,252.36655,571.9801L252.36655,571.9801L252.36646,680.4383C252.36646,681.95734,251.13492,683.18896,249.61572,683.18896L249.61572,683.18896L175.34702,683.18896C173.82785,683.18896,172.59631,681.95734,172.59631,680.4383L172.59631,680.4383L172.59634,571.9799C172.59634,570.4609,173.82785,569.22925,175.34698,569.22925L175.34698,569.22925 M175.34702,574.7307L178.09772,571.9799L178.09769,680.4383L175.34702,677.6876L249.61572,677.6876L246.86508,680.4383L246.86511,571.9801L249.61578,574.7309L175.34702,574.7307 Z M175.34698,569.22925L175.34698,569.22925L249.61578,569.22943C251.13498,569.22943,252.36655,570.46106,252.36655,571.9801L252.36655,571.9801L252.36646,680.4383C252.36646,681.95734,251.13492,683.18896,249.61572,683.18896L249.61572,683.18896L175.34702,683.18896C173.82785,683.18896,172.59631,681.95734,172.59631,680.4383L172.59631,680.4383L172.59634,571.9799C172.59634,570.4609,173.82785,569.22925,175.34698,569.22925L175.34698,569.22925 M175.34702,574.7307L178.09772,571.9799L178.09769,680.4383L175.34702,677.6876L249.61572,677.6876L246.86508,680.4383L246.86511,571.9801L249.61578,574.7309L175.34702,574.7307 Z"/>
</g>
<g>
<g style="fill:rgb(0,15,192); fill-opacity:1.0; stroke-linejoin: miter">
<path d="M202.3837,566.6685L224.26352,566.6685L224.26352,569.4349L202.3837,569.4349L202.3837,566.6685 Z M202.3837,566.6685L224.26352,566.6685L224.26352,569.4349L202.3837,569.4349L202.3837,566.6685 Z M202.3837,566.6685L224.26352,566.6685L224.26352,569.4349L202.3837,569.4349L202.3837,566.6685 Z M202.3837,566.6685L224.26352,566.6685L224.26352,569.4349L202.3837,569.4349L202.3837,566.6685 Z"/>
</g>
<g style="fill:rgb(0,0,0); fill-opacity:1.0; stroke-linejoin: miter">
<path d="M202.3837,564.90796L202.3837,564.90796L224.26352,564.90796C225.23575,564.90796,226.02399,565.69635,226.02399,566.6685L226.02399,566.6685L226.02399,569.4349C226.02399,570.4072,225.23575,571.1955,224.26352,571.1955L224.26352,571.1955L202.3837,571.1955C201.41138,571.1955,200.62323,570.4072,200.62323,569.4349L200.62323,569.4349L200.62323,566.6685C200.62323,565.69635,201.41138,564.90796,202.3837,564.90796L202.3837,564.90796 M202.3837,568.42896L204.14417,566.6685L204.14417,569.4349L202.3837,567.67444L224.26352,567.67444L222.50305,569.4349L222.50305,566.6685L224.26352,568.42896L202.3837,568.42896 Z M202.3837,564.90796L202.3837,564.90796L224.26352,564.90796C225.23575,564.90796,226.02399,565.69635,226.02399,566.6685L226.02399,566.6685L226.02399,569.4349C226.02399,570.4072,225.23575,571.1955,224.26352,571.1955L224.26352,571.1955L202.3837,571.1955C201.41138,571.1955,200.62323,570.4072,200.62323,569.4349L200.62323,569.4349L200.62323,566.6685C200.62323,565.69635,201.41138,564.90796,202.3837,564.90796L202.3837,564.90796 M202.3837,568.42896L204.14417,566.6685L204.14417,569.4349L202.3837,567.67444L224.26352,567.67444L222.50305,569.4349L222.50305,566.6685L224.26352,568.42896L202.3837,568.42896 Z M202.3837,564.90796L202.3837,564.90796L224.26352,564.90796C225.23575,564.90796,226.02399,565.69635,226.02399,566.6685L226.02399,566.6685L226.02399,569.4349C226.02399,570.4072,225.23575,571.1955,224.26352,571.1955L224.26352,571.1955L202.3837,571.1955C201.41138,571.1955,200.62323,570.4072,200.62323,569.4349L200.62323,569.4349L200.62323,566.6685C200.62323,565.69635,201.41138,564.90796,202.3837,564.90796L202.3837,564.90796 M202.3837,568.42896L204.14417,566.6685L204.14417,569.4349L202.3837,567.67444L224.26352,567.67444L222.50305,569.4349L222.50305,566.6685L224.26352,568.42896L202.3837,568.42896 Z M202.3837,564.90796L202.3837,564.90796L224.26352,564.90796C225.23575,564.90796,226.02399,565.69635,226.02399,566.6685L226.02399,566.6685L226.02399,569.4349C226.02399,570.4072,225.23575,571.1955,224.26352,571.1955L224.26352,571.1955L202.3837,571.1955C201.41138,571.1955,200.62323,570.4072,200.62323,569.4349L200.62323,569.4349L200.62323,566.6685C200.62323,565.69635,201.41138,564.90796,202.3837,564.90796L202.3837,564.90796 M202.3837,568.42896L204.14417,566.6685L204.14417,569.4349L202.3837,567.67444L224.26352,567.67444L222.50305,569.4349L222.50305,566.6685L224.26352,568.42896L202.3837,568.42896 Z"/>
</g>
</g>
<g style="fill:rgb(0,0,0); fill-opacity:1.0; stroke-linejoin: miter">
<path d="M183.20578,650.96423L241.75699,650.96423L241.75699,670.61237L183.20578,670.61237L183.20578,650.96423 Z M183.20578,650.96423L241.75699,650.96423L241.75699,670.61237L183.20578,670.61237L183.20578,650.96423 Z M183.20578,650.96423L241.75699,650.96423L241.75699,670.61237L183.20578,670.61237L183.20578,650.96423 Z M183.20578,650.96423L241.75699,650.96423L241.75699,670.61237L183.20578,670.61237L183.20578,650.96423 Z"/>
</g>
<g style="fill:rgb(0,0,0); fill-opacity:1.0; stroke-linejoin: miter">
<path d="M183.20578,627.8058L241.75702,627.8058L241.75699,647.454L183.20578,647.454L183.20578,627.8058 Z M183.20578,627.8058L241.75702,627.8058L241.75699,647.454L183.20578,647.454L183.20578,627.8058 Z M183.20578,627.8058L241.75702,627.8058L241.75699,647.454L183.20578,647.454L183.20578,627.8058 Z M183.20578,627.8058L241.75702,627.8058L241.75699,647.454L183.20578,647.454L183.20578,627.8058 Z"/>
</g>
<g style="fill:rgb(0,0,0); fill-opacity:1.0; stroke-linejoin: miter">
<path d="M183.20578,604.64746L241.75705,604.64764L241.75702,624.2957L183.20578,624.2957L183.20578,604.64746 Z M183.20578,604.64746L241.75705,604.64764L241.75702,624.2957L183.20578,624.2957L183.20578,604.64746 Z M183.20578,604.64746L241.75705,604.64764L241.75702,624.2957L183.20578,624.2957L183.20578,604.64746 Z M183.20578,604.64746L241.75705,604.64764L241.75702,624.2957L183.20578,624.2957L183.20578,604.64746 Z"/>
</g>
<g style="fill:rgb(0,0,0); fill-opacity:1.0; stroke-linejoin: miter">
<path d="M213.3536,486.68427C211.58224,486.68427,209.811,486.71948,207.93457,486.77203C206.42636,486.80707,204.86557,486.8421,203.18207,486.9474C202.83127,486.9474,202.46301,486.98242,202.09485,487.01727C160.49716,488.9992,125.826584,504.6245,102.94084,531.52637C89.63031,547.2218,80.54619,566.70557,76.547745,588.4165C72.93518,608.21576,73.285904,629.2599,77.68765,651.4441C80.300705,664.71954,81.4756,667.89404,90.6124,686.46545C97.04845,699.54803,98.90738,703.82733,101.25731,710.96466C104.57181,721.1889,105.06282,727.9405,103.16879,738.12933C101.69571,745.7581,98.74953,758.27936,96.97824,764.45233C96.609985,765.52216,95.627914,769.04706,94.71602,772.1861C93.1026,777.8328,92.50636,779.8848,89.19185,790.4421L89.121704,790.445C85.89484,796.0538,81.510635,802.57733,76.28462,809.20636C71.60225,815.39716,66.83217,826.2525,66.16582,833.5651C64.93822,843.56134,61.904327,849.01556,52.96048,856.43365C46.59459,861.6945,40.86,866.9559,39.930527,868.008C38.98358,869.04254,35.178024,872.53253,31.653091,875.3558C8.907692,892.367,-35.951805,946.9239,-35.495766,956.8151L-36.14469,956.81793Q58.466995,1045.7798,187.83704,1050.2869Q190.20456,1050.3223,192.55447,1050.3223Q253.16211,1050.3223,306.72006,1031.7329L308.7192,1031.7358C308.52637,1031.4873,308.33344,1031.2595,308.15808,1031.0488C295.14554,1016.66876,291.98892,1005.2695,290.11243,966.5131C287.32422,915.2172,278.22247,883.80865,257.72186,856.94196C251.0051,848.29645,250.98767,847.9804,259.28265,834.28424C259.59827,833.7232,259.91397,833.1617,260.22952,832.5656L260.2821,832.5688Q258.84415,831.987,257.371,831.3205L257.33594,831.3232C258.75644,827.76056,260.1068,824.6215,261.42206,821.9736C263.50894,817.7996,266.87616,812.8719,268.6648,811.311L270.01523,810.15326L295.82962,813.85406L321.73166,817.5544L324.5374,817.2037C328.0976,816.81757,330.18457,816.3267,333.25348,815.2741C339.9175,812.9416,346.8972,807.1192,349.10687,801.9638C350.87814,797.71967,350.77283,793.1075,348.61578,781.0948C347.09024,772.79987,347.09024,772.6243,347.54617,770.2746C348.2826,767.0124,350.1767,764.3647,354.91162,760.2784C358.89255,756.8238,359.33105,756.33246,359.48892,755.1927C359.69925,753.82477,359.10303,752.4395,357.0337,749.3354C354.87656,746.1263,354.1401,744.5301,354.5609,743.79364C354.66617,743.5832,355.71844,742.84686,356.8933,742.2155C362.2773,739.28656,364.01328,737.58563,364.48685,734.727C364.8025,732.81525,364.45184,731.4827,362.4876,727.92267C360.89185,725.01166,360.40076,723.3631,360.38324,721.5916C360.38324,720.82025,360.1027,718.6983,359.82202,716.8746C359.17322,712.9814,359.31354,711.2978,360.38324,710.05255C361.6108,708.50946,363.62762,707.82526,367.6086,707.64996C367.9592,707.61505,368.30994,707.5795,368.69583,707.5795C368.90625,707.5623,369.11664,707.5623,369.3446,707.5623C369.8181,707.5623,370.3092,707.5795,370.81778,707.5795C370.92288,707.5972,371.02826,707.5972,371.13342,707.5972C371.32635,707.5972,371.5368,707.5795,371.72964,707.5795C373.15015,707.5096,374.43042,707.1589,377.39417,706.17706C384.42654,703.77435,387.37268,701.86273,388.81076,698.6535C389.98566,696.0756,389.6876,692.7259,387.74084,687.21954C385.26822,680.2749,381.32245,672.85645,369.41492,652.6364C362.0493,640.0626,358.15616,633.153,355.5606,627.89185L353.99985,624.6823L355.05197,622.841C358.6646,616.63324,359.80463,610.4953,359.27844,600.39386C358.45422,584.3123,353.94724,568.45905,346.30112,554.3769C340.4262,543.6089,332.11368,532.9818,322.87173,524.44116C306.1416,508.9563,283.1682,497.3468,258.178,491.6997C255.81046,491.17365,253.30264,490.62988,252.54861,490.4546C250.04083,489.85846,231.46918,487.45575,227.69864,487.2105C222.0694,486.85962,217.73782,486.68427,213.3536,486.68427 Z M210.986,517.3212Q250.6195,517.3212,280.51993,544.7141Q310.03476,573.5101,311.6831,614.72174Q312.2092,655.9861,284.15012,686.2376Q255.84552,715.48883,214.26532,717.2778L212.8624,717.2808Q172.31699,717.2778,142.62701,689.63947Q113.53323,661.2999,111.74437,619.9302Q111.21831,578.6833,139.27744,548.39667Q167.58206,519.1627,209.12714,517.33875L209.14468,517.3417Q210.07413,517.3212,210.986,517.3212 Z"/>
</g>
<g style="fill:rgb(0,0,0); fill-opacity:1.0; stroke-linejoin: miter">
<path d="M350.38336,591.8723L356.1574,591.541L361.9315,591.2098Q363.48108,618.2049,365.03064,645.2001Q359.2566,645.5316,353.48254,645.8632Q351.93292,618.8678,350.38336,591.8723"/>
</g>
<g style="fill:rgb(0,0,0); fill-opacity:1.0; stroke-linejoin: miter">
<path d="M350.93185,627.43066L363.26117,626.72363L375.59042,626.01666Q375.7926,629.53876,375.99478,633.061Q363.66556,633.7694,351.33636,634.4779L350.93185,627.43066"/>
</g>
<g style="fill:rgb(0,0,0); fill-opacity:1.0; stroke-linejoin: miter">
<path d="M350.93185,607.4288L375.5904,606.0148L375.99478,613.0591L351.33636,614.476L350.93185,607.4288"/>
</g>
<g style="fill:rgb(0,0,0); fill-opacity:1.0; stroke-linejoin: miter">
<path d="M373.80707,591.81525L394.05444,591.10565L414.3018,590.3962Q415.34244,620.06134,416.3831,649.72656Q396.13577,650.43756,375.88843,651.1485Q374.84775,621.4819,373.80707,591.81525"/>
</g>
<g style="fill:rgb(0,0,0); fill-opacity:1.0; stroke-linejoin: miter">
<path d="M393.60373,604.58044L414.69376,604.5805L435.78366,604.5806Q435.78366,621.3279,435.78366,638.0751Q414.69376,638.0751,393.60373,638.0752Q393.60373,621.3279,393.60373,604.58044"/>
</g>
<g style="fill:rgb(0,0,0); fill-opacity:1.0; stroke-linejoin: miter">
<path d="M600.67175,825.8028L636.2744,692.28375L671.8772,558.76434Q602.83704,566.0113,533.7969,573.25806Q498.4246,708.75287,463.05258,844.2476L600.67175,825.8028"/>
</g>
<g style="fill:rgb(0,0,0); fill-opacity:1.0; stroke-linejoin: miter">
<path d="M671.47766,558.491L650.5239,518.56445L629.5702,478.63806Q564.91187,655.35736,500.25388,832.07623Q531.70056,825.56415,563.14734,819.05194L671.47766,558.491"/>
</g>
<g>
<g style="fill:rgb(0,0,0); fill-opacity:1.0; stroke-linejoin: miter">
<path d="M600.67175,825.8028L636.2744,692.28375L671.8772,558.76434Q602.83704,566.0113,533.7969,573.25806Q498.4246,708.75287,463.05258,844.2476L600.67175,825.8028"/>
</g>
<g style="fill:rgb(0,0,0); fill-opacity:1.0; stroke-linejoin: miter">
<path d="M671.47766,558.491L650.5239,518.56445L629.5702,478.63806Q564.91187,655.35736,500.25388,832.07623Q531.70056,825.56415,563.14734,819.05194L671.47766,558.491"/>
</g>
</g>
<g style="fill:rgb(0,0,0); fill-opacity:1.0; stroke-linejoin: miter">
<path d="M611.8368,827.38617L656.15173,696.49994L700.46716,565.6143Q631.1,568.30066,561.7324,570.986Q517.5171,703.85834,473.30185,836.7303L611.8368,827.38617"/>
</g>
<g style="fill:rgb(0,0,0); fill-opacity:1.0; stroke-linejoin: miter">
<path d="M700.0867,565.31537L681.80664,524.09576L663.527,482.877Q587.37537,654.9556,511.22372,827.0347Q543.0309,822.607,574.83813,818.17914L700.0867,565.31537"/>
</g>
<g>
<g style="fill:rgb(0,0,0); fill-opacity:1.0; stroke-linejoin: miter">
<path d="M630.09424,828.5976L676.4834,698.4327L722.8727,568.2674Q653.47144,569.8512,584.06995,571.4349Q537.74927,703.5878,491.42838,835.7408L630.09424,828.5976"/>
</g>
<g style="fill:rgb(0,0,0); fill-opacity:1.0; stroke-linejoin: miter">
<path d="M722.4967,567.9624L704.8744,526.4579L687.2516,484.95337Q608.3755,655.8011,529.4995,826.6484Q561.3729,822.7266,593.2466,818.8044L722.4967,567.9624"/>
</g>
</g>
<g style="fill:rgb(0,0,0); fill-opacity:1.0; stroke-linejoin: miter">
<path d="M406.2697,623.33826L406.2697,623.33826L406.2697,623.3387L402.98834,620.1013L640.7396,616.8998C642.5276,616.87573,643.9966,618.30566,644.0206,620.0937C644.0448,621.8817,642.61475,623.35065,640.8268,623.37476L640.8268,623.37476L403.07556,626.5762C402.20935,626.58777,401.37463,626.25183,400.758,625.6435C400.14136,625.03516,399.79422,624.20496,399.79422,623.3387L399.79422,623.3387L399.79422,623.33826C399.79422,621.5501,401.2438,620.1004,403.03195,620.1004C404.82013,620.1004,406.2697,621.5501,406.2697,623.33826 Z"/>
</g>
<g style="fill:rgb(0,0,0); fill-opacity:1.0; stroke-linejoin: miter">
<path d="M750.75946,789.11316L750.7594,789.1138L750.75934,789.11444L750.7594,789.1138L750.75946,789.11316L750.7594,789.1138L750.75934,789.11444Q750.7594,789.1138,750.75946,789.11316"/>
</g>
</g>
</svg>